<svg viewBox="0 0 512 512" xmlns="http://www.w3.org/2000/svg"><path d="m180 452c0 33.136719-26.863281 60-60 60s-60-26.863281-60-60 26.863281-60 60-60 60 26.863281 60 60zm0 0"/><path d="m452 452c0 33.136719-26.863281 60-60 60s-60-26.863281-60-60 26.863281-60 60-60 60 26.863281 60 60zm0 0"/><path d="m256 0c-140.832031 0-256 115.167969-256 256 0 53.855469 16.792969 104.734375 45.289062 145.898438 11.378907-16.914063 28.5-29.375 48.386719-35.511719-21.234375-31.214844-33.675781-69.871094-33.675781-110.386719 0-107.519531 88.480469-196 196-196s196 88.480469 196 196c0 40.515625-12.441406 79.167969-33.675781 110.382812 19.886719 6.140626 37.007812 18.601563 48.386719 35.515626 28.496093-41.164063 45.289062-92.042969 45.289062-145.898438 0-140.832031-115.167969-256-256-256zm0 0"/></svg>